<svg xmlns="http://www.w3.org/2000/svg" viewBox="0 0 292 125.52"><defs><style>.cls-1{fill:#333;}.cls-2{fill:none;stroke:#fff;stroke-miterlimit:10;stroke-width:5px;}.cls-3{fill:#fff;}</style></defs><g id="Layer_2" data-name="Layer 2"><g id="Text"><rect class="cls-1" width="292" height="125.52" rx="13"/><rect class="cls-2" x="5" y="4.83" width="282" height="115.86" rx="9"/><path class="cls-3" d="M51.21,69.24c.23.51.67.29,1.33-.66L64.8,50.41h4.37L52.77,74a3.49,3.49,0,0,1-2.85,1.81,1.32,1.32,0,0,1-1.07-.74L31,50.41h6.18Z"/><path class="cls-3" d="M72.44,63.13a6.54,6.54,0,0,1-2.27-5.45q0-7.27,9.08-7.27h29.08V54H79.25c-2.42,0-3.63,1.22-3.63,3.64s1.21,3.63,3.63,3.63h29.08V65H79.25q-3.63,0-3.63,3.63t3.63,3.64h29.08v3.63H79.25q-9.07,0-9.08-7.27A6.54,6.54,0,0,1,72.44,63.13Z"/><path class="cls-3" d="M126.51,61.31V65H112V61.31Z"/><path class="cls-3" d="M130.14,75.85V72.22h14.54q3.65,0,3.64-3.64V57.68q0-7.27,9.08-7.27H172V54H157.4c-2.42,0-3.63,1.22-3.63,3.64v10.9q0,7.28-9.09,7.27Z"/><path class="cls-3" d="M213.75,68.58q0,7.28-9.09,7.27H175.58V72.22h29.08q3.63,0,3.63-3.64V57.68c0-2.42-1.21-3.64-3.63-3.64H175.58V50.41h29.08q9.09,0,9.09,7.27Z"/><path class="cls-3" d="M236,65,221,75.11a3.8,3.8,0,0,1-1.82.74A1.6,1.6,0,0,1,217.38,74V50.41h5.45V68.58c0,1,.25,1.31.75,1.09l28.33-19.26h5.46L240.52,61.86l16.85,14h-7.93Z"/></g></g></svg>